<svg xmlns="http://www.w3.org/2000/svg" width="1774" height="591" viewBox="0 0 1774 591">
<g>
<path d="M 150.00 326.50 L 150.00 211.00 L 168.50 211.00 L 187.00 211.00 L 187.00 220.53 L 187.00 230.05 L 193.66 224.40 C206.84,213.22 225.07,207.15 241.96,208.32 C277.05,210.74 306.37,235.55 315.69,270.71 C317.96,279.26 318.30,282.60 318.38,297.00 C318.48,315.26 317.42,321.81 312.12,335.52 C307.43,347.66 302.30,355.66 293.50,364.55 C279.93,378.25 266.43,385.53 248.87,388.60 C239.25,390.27 225.40,390.06 218.00,388.11 C216.07,387.61 213.26,386.92 211.75,386.58 L 209.00 385.96 L 209.00 366.48 C209.00,355.77 209.22,347.00 209.48,347.00 C209.74,347.00 213.39,348.15 217.58,349.56 C227.70,352.96 240.66,353.15 249.91,350.03 C264.81,345.01 274.06,335.48 279.67,319.39 C282.09,312.43 282.41,310.03 282.43,299.00 C282.45,280.26 278.46,269.14 268.07,259.01 C261.33,252.43 253.94,248.52 244.48,246.51 C235.73,244.66 232.27,244.66 223.52,246.51 C205.04,250.43 192.75,262.22 188.54,280.09 C187.26,285.52 187.03,298.44 187.01,364.25 L 187.00 442.00 L 168.50 442.00 L 150.00 442.00 L 150.00 326.50 ZM 419.91 386.45 C387.81,380.63 364.04,359.49 353.64,327.50 C347.24,307.80 347.52,286.17 354.44,265.56 C363.49,238.64 385.50,218.41 414.00,210.82 C426.08,207.59 446.80,207.61 459.00,210.85 C489.31,218.90 512.27,241.68 520.13,271.50 C523.32,283.61 523.82,305.45 521.20,318.12 C515.96,343.48 503.05,362.74 482.87,375.30 C465.80,385.92 441.12,390.29 419.91,386.45 ZM 453.50 349.93 C469.59,344.95 481.80,331.05 485.49,313.50 C488.50,299.21 486.79,282.43 481.12,270.59 C471.45,250.35 447.21,239.85 423.23,245.51 C396.12,251.90 380.96,278.36 386.41,309.79 C388.96,324.54 395.00,335.04 405.28,342.62 C418.55,352.40 436.62,355.14 453.50,349.93 ZM 600.50 385.45 C588.64,383.25 582.27,381.22 574.72,377.27 C561.76,370.48 552.44,358.31 549.47,344.27 C546.85,331.91 545.27,333.00 565.84,333.00 L 583.68 333.00 L 584.87 336.95 C588.57,349.29 601.14,354.50 627.00,354.41 C647.93,354.34 658.12,351.14 664.41,342.68 C667.31,338.76 667.37,328.65 664.50,324.86 C659.52,318.26 651.87,315.69 632.20,313.98 C612.02,312.23 595.99,310.17 589.50,308.49 C580.93,306.27 569.94,300.84 564.95,296.36 C549.38,282.36 545.54,258.67 555.53,238.31 C561.81,225.49 574.52,216.62 593.54,211.78 C601.60,209.74 604.77,209.51 625.00,209.56 C646.14,209.61 648.10,209.77 657.34,212.27 C668.80,215.37 677.70,220.04 685.22,226.92 C693.11,234.13 696.73,241.60 698.47,254.25 L 699.12 259.00 L 680.69 259.00 L 662.25 259.00 L 661.69 256.22 C659.73,246.38 646.46,241.04 624.00,241.03 C604.90,241.03 593.04,245.09 589.00,253.00 C584.66,261.51 587.88,270.31 597.03,275.01 C602.01,277.56 609.76,278.83 631.00,280.56 C659.48,282.89 673.08,286.15 684.32,293.34 C694.46,299.83 700.09,308.44 702.61,321.32 C704.10,328.93 704.18,331.40 703.16,339.32 C701.59,351.52 696.24,362.80 688.87,369.42 C682.11,375.50 669.62,381.54 658.50,384.10 C646.35,386.89 612.49,387.68 600.50,385.45 ZM 1004.50 385.86 C980.53,383.94 960.19,372.99 946.35,354.59 C924.24,325.17 922.03,279.76 941.15,247.23 C946.14,238.73 960.03,225.33 969.19,220.17 C989.12,208.95 1010.25,205.57 1032.34,210.07 C1050.40,213.74 1061.22,219.31 1073.01,231.00 C1078.84,236.78 1081.53,240.44 1084.75,247.00 C1093.28,264.33 1093.96,270.60 1093.98,332.75 L 1094.00 384.00 L 1076.50 384.00 L 1059.00 384.00 L 1058.98 335.75 C1058.97,309.21 1058.52,284.45 1057.98,280.73 C1054.64,257.61 1037.56,244.00 1011.88,244.00 C997.16,244.00 986.69,248.35 977.17,258.42 C968.07,268.04 963.98,280.00 964.02,296.93 C964.08,326.03 978.71,345.77 1003.41,350.06 C1012.02,351.56 1020.81,350.78 1029.94,347.72 L 1037.00 345.35 L 1037.00 364.14 L 1037.00 382.92 L 1032.96 384.01 C1026.69,385.70 1013.32,386.57 1004.50,385.86 ZM 1383.00 385.31 C1349.63,379.70 1324.25,355.74 1315.43,321.50 C1312.48,310.05 1311.81,292.32 1313.90,281.00 C1319.13,252.59 1335.48,230.31 1359.78,218.46 C1380.25,208.48 1407.90,207.35 1429.88,215.60 C1454.30,224.77 1472.10,245.07 1475.60,267.75 L 1476.26 272.00 L 1458.76 272.00 L 1441.27 272.00 L 1439.56 267.51 C1435.89,257.90 1423.53,248.42 1410.96,245.56 C1387.40,240.20 1363.98,250.07 1354.50,269.34 C1343.23,292.24 1346.91,322.03 1362.99,338.14 C1373.47,348.63 1384.85,352.58 1402.39,351.80 C1412.38,351.36 1413.49,351.09 1421.44,347.15 C1430.48,342.66 1435.36,338.01 1439.08,330.33 L 1441.18 326.00 L 1458.59 326.00 C1478.41,326.00 1477.26,325.34 1474.40,335.07 C1471.39,345.32 1466.05,354.04 1457.55,362.59 C1441.31,378.91 1422.55,386.16 1397.29,385.86 C1390.81,385.79 1384.38,385.54 1383.00,385.31 ZM 1567.50 384.34 C1542.11,378.93 1521.40,362.29 1510.39,338.48 C1504.40,325.51 1502.59,315.85 1502.59,297.00 C1502.60,284.77 1503.05,278.69 1504.33,273.50 C1510.69,247.68 1523.83,230.79 1546.28,219.56 C1564.99,210.20 1582.66,207.88 1603.34,212.05 C1620.61,215.53 1639.25,226.23 1649.35,238.46 C1662.62,254.53 1669.74,277.97 1668.81,302.50 L 1668.50 310.50 L 1614.72 310.76 L 1560.95 311.02 L 1561.22 296.26 L 1561.50 281.50 L 1596.38 281.24 L 1631.25 280.97 L 1630.61 276.93 C1627.35,256.55 1601.80,241.10 1577.73,244.96 C1557.02,248.28 1543.45,259.95 1538.45,278.72 C1536.41,286.41 1536.42,307.43 1538.47,315.26 C1543.34,333.83 1557.09,347.39 1574.78,351.06 C1582.93,352.75 1598.13,351.77 1605.11,349.11 C1613.21,346.01 1619.77,341.33 1623.73,335.82 L 1627.19 331.00 L 1646.09 331.00 C1656.49,331.00 1665.00,331.20 1665.00,331.43 C1665.00,332.67 1659.15,345.23 1656.27,350.20 C1649.09,362.58 1632.80,375.48 1617.76,380.72 C1602.72,385.96 1582.05,387.45 1567.50,384.34 ZM 792.50 382.37 C770.94,377.86 755.50,363.24 749.34,341.50 C747.89,336.39 747.58,329.15 747.25,292.75 L 746.85 250.00 L 734.90 250.00 L 722.95 250.00 L 723.23 233.25 L 723.50 216.50 L 735.00 216.63 L 746.50 216.76 L 747.00 189.13 L 747.50 161.50 L 765.25 161.23 L 783.00 160.95 L 783.00 187.46 L 783.00 213.96 L 805.75 214.23 L 828.50 214.50 L 828.50 231.50 L 828.50 248.50 L 805.71 248.77 L 782.92 249.04 L 783.21 290.77 C783.50,331.80 783.54,332.57 785.74,336.69 C790.76,346.08 798.08,349.00 816.63,349.00 L 830.00 349.00 L 830.00 366.50 L 830.00 384.00 L 814.75 383.92 C805.52,383.87 796.74,383.26 792.50,382.37 ZM 859.25 272.77 L 859.50 161.50 L 877.25 161.23 L 895.01 160.95 L 894.75 272.23 L 894.50 383.50 L 876.75 383.77 L 858.99 384.05 L 859.25 272.77 ZM 1131.00 298.00 L 1131.00 212.00 L 1148.50 212.00 L 1166.00 212.00 L 1166.00 221.05 L 1166.00 230.09 L 1172.25 225.00 C1194.74,206.68 1227.84,204.96 1252.17,220.85 C1264.58,228.95 1271.42,238.64 1276.66,255.53 L 1279.45 264.50 L 1279.77 324.25 L 1280.10 384.00 L 1263.05 384.00 L 1246.00 384.00 L 1245.99 334.25 C1245.99,305.39 1245.56,281.77 1244.96,278.00 C1242.01,259.16 1228.84,246.88 1209.89,245.29 C1194.83,244.02 1178.74,252.05 1171.47,264.46 C1166.37,273.17 1166.03,277.36 1166.01,332.75 L 1166.00 384.00 L 1148.50 384.00 L 1131.00 384.00 L 1131.00 298.00 Z" fill="rgba(0,0,0,1)"/>
</g>
</svg>